<svg width="30" height="21" viewBox="0 0 30 21" fill="none" xmlns="http://www.w3.org/2000/svg">
<g clip-path="url(#clip0_2109_277)">
<path d="M7.98781 9.20697C7.43902 9.20697 7.0122 9.39506 7.0122 9.39506L6.89024 10.1474C6.89024 10.1474 7.2561 10.022 7.80488 10.022C8.10976 10.022 8.35366 10.0847 8.35366 10.3355V10.5236H7.98781C7.2561 10.5236 6.52439 10.8371 6.52439 11.7775C6.52439 12.5299 7.0122 12.6552 7.31707 12.6552C7.86585 12.6552 8.17073 12.2791 8.17073 12.2791V12.5926H8.90244L9.20732 10.2728C9.08537 9.26967 8.29268 9.20697 7.98781 9.20697ZM7.56098 11.9029C7.31707 11.9029 7.2561 11.7148 7.2561 11.5894C7.2561 11.3386 7.37805 11.0878 7.98781 11.0878H8.17073C8.17073 11.2759 8.04878 11.9029 7.56098 11.9029ZM10.6098 10.022C10.7317 10.022 11.1585 10.0847 11.1585 10.0847L11.2805 9.33236C11.2805 9.33236 10.9756 9.26966 10.5488 9.26966C9.93902 9.26966 9.32927 9.52045 9.32927 10.3982C9.32927 11.3386 10.3659 11.2759 10.3659 11.6521C10.3659 11.9029 10.061 11.9656 9.87805 11.9656C9.5122 11.9656 9.14634 11.8402 9.14634 11.8402L9.02439 12.5926C9.02439 12.5926 9.26829 12.7179 9.93902 12.7179C10.122 12.7179 11.1585 12.7806 11.1585 11.6521C11.1585 10.5863 10.1829 10.8371 10.1829 10.3982C10.122 10.0847 10.3049 10.022 10.6098 10.022ZM12.3171 10.0847H12.7439L12.8659 9.26966H12.439L12.5 8.7681H11.7073C11.7073 8.7681 11.2195 11.5267 11.2195 11.9029C11.2195 12.4045 11.4634 12.5926 11.8902 12.5926C12.1951 12.5926 12.439 12.5299 12.5 12.4672L12.622 11.7775H12.439C12.1341 11.7775 12.1341 11.6521 12.1341 11.5267L12.3171 10.0847ZM15.7317 5.50791H14.2683C14.0854 5.75869 13.9024 6.07217 13.7195 6.38565H16.3415C16.1585 6.07217 15.9756 5.75869 15.7317 5.50791ZM16.7683 7.2007H13.2317C12.9878 7.63957 12.8659 7.95305 12.8049 8.07844H17.0732C17.0122 7.70227 16.8902 7.45148 16.7683 7.2007ZM5.4878 8.51731L4.69512 10.9625L4.63415 8.51731H3.41463L2.7439 12.5299H3.53659L4.02439 9.52045L4.08537 12.5299H4.63415L5.67073 9.52045L5.18293 12.5299H6.09756L6.76829 8.51731H5.4878ZM21.2805 9.20697C20.7317 9.20697 20.3049 9.39506 20.3049 9.39506L20.1829 10.1474C20.1829 10.1474 20.5488 10.022 21.0976 10.022C21.4024 10.022 21.6463 10.0847 21.6463 10.3355V10.5236H21.2805C20.5488 10.5236 19.8171 10.8371 19.8171 11.7775C19.8171 12.5299 20.3049 12.6552 20.6098 12.6552C21.1585 12.6552 21.4634 12.2791 21.4634 12.2791V12.5926H22.1951L22.5 10.2728C22.378 9.26967 21.5854 9.20697 21.2805 9.20697ZM20.8537 11.9029C20.6098 11.9029 20.5488 11.7148 20.5488 11.5894C20.5488 11.3386 20.6707 11.0878 21.2805 11.0878H21.4634C21.4634 11.2759 21.3415 11.9029 20.8537 11.9029ZM27.1951 12.2164C27.1951 12.1537 27.1341 12.1537 27.0732 12.091C27.0122 12.091 27.0122 12.0283 26.9512 12.0283C26.8902 12.0283 26.8902 12.0283 26.8293 12.091C26.7683 12.091 26.7683 12.1537 26.7073 12.2164C26.7073 12.2791 26.6463 12.2791 26.6463 12.3418C26.6463 12.4045 26.6463 12.4045 26.7073 12.4672C26.7073 12.5299 26.7683 12.5299 26.8293 12.5926C26.8902 12.5926 26.8902 12.6552 26.9512 12.6552C27.0122 12.6552 27.0122 12.6552 27.0732 12.5926C27.1341 12.5926 27.1341 12.5299 27.1951 12.4672C27.1951 12.4045 27.2561 12.4045 27.2561 12.3418C27.1951 12.2791 27.1951 12.2164 27.1951 12.2164ZM27.1341 12.4045C27.1341 12.4672 27.0732 12.4672 27.0732 12.4672H26.8293L26.7683 12.4045V12.2791V12.1537C26.7683 12.091 26.8293 12.091 26.8293 12.091H27.0732C27.1341 12.091 27.1341 12.1537 27.1341 12.1537V12.2791C27.1951 12.3418 27.1951 12.4045 27.1341 12.4045ZM27.0732 12.4045C27.0122 12.3418 27.0122 12.4045 27.0732 12.4045L27.0122 12.3418H27.0732V12.2791V12.2164H26.8293V12.4672H26.8902V12.3418H26.9512C26.9512 12.3418 27.0122 12.4045 27.0732 12.4045ZM26.9512 12.2791L26.8902 12.2164H27.0122C27.0122 12.2791 27.0122 12.2791 26.9512 12.2791C27.0122 12.2791 26.9512 12.2791 26.9512 12.2791ZM24.0244 9.26966C23.6585 9.26966 23.4146 9.77123 23.4146 9.77123L23.4756 9.26966H22.6829L22.1951 12.5299H23.0488C23.2927 11.1505 23.3537 10.022 23.9024 10.2101C24.0244 9.64584 24.0854 9.45775 24.2073 9.20697C24.2073 9.26967 24.1463 9.26966 24.0244 9.26966ZM26.1585 8.58001L25.9756 9.70854C25.9756 9.70854 25.6707 9.26966 25.1829 9.26966C24.4512 9.26966 23.7805 10.2101 23.7805 11.2759C23.7805 11.9656 24.0854 12.6552 24.8171 12.6552C25.3049 12.6552 25.6098 12.2791 25.6098 12.2791L25.5488 12.5926H26.3415L26.9512 8.58001H26.1585ZM25.122 11.7775C24.8171 11.7775 24.6951 11.5267 24.6951 11.1505C24.6951 10.5236 25 10.0847 25.3659 10.0847C25.6707 10.0847 25.7927 10.2728 25.7927 10.7744C25.7927 11.2132 25.5488 11.7775 25.122 11.7775ZM29.2073 0.554932H0.792683C0.365854 0.554932 0 0.931107 0 1.36998V19.7399C0 20.1788 0.365854 20.5549 0.792683 20.5549H29.2073C29.6341 20.5549 30 20.1788 30 19.7399V1.36998C30 0.931107 29.6341 0.554932 29.2073 0.554932ZM27.8659 10.5236C27.8659 14.9123 24.4512 18.4233 20.1829 18.4233C18.1707 18.4233 16.4024 17.6709 15 16.3543C13.6585 17.6082 11.8293 18.4233 9.81707 18.4233C5.54878 18.4233 2.13415 14.8496 2.13415 10.5236C2.13415 6.19756 5.54878 2.68659 9.7561 2.6239H9.81707C11.8293 2.6239 13.5976 3.37625 15 4.69286C16.3415 3.43894 18.1707 2.6239 20.1829 2.6239C24.3902 2.6239 27.8659 6.19756 27.8659 10.5236ZM14.2073 15.5393C14.4512 15.8527 14.6951 16.1662 15 16.417C15.3049 16.1662 15.5488 15.8527 15.7927 15.5393H14.2073ZM15.2439 11.2132C15.2439 11.2132 15.3659 10.649 15.3659 10.4609C15.3659 9.89662 15.122 9.20697 14.2073 9.20697C13.3537 9.20697 12.7439 10.1474 12.7439 11.1505C12.7439 12.3418 13.5366 12.5926 14.1463 12.5926C14.7561 12.5926 15 12.4672 15 12.4672L15.122 11.6521C15.122 11.6521 14.6951 11.8402 14.2683 11.8402C13.4146 11.8402 13.5366 11.1505 13.5366 11.1505L15.2439 11.2132ZM14.2073 9.95932C14.6951 9.95932 14.5732 10.5236 14.5732 10.5236H13.6585C13.6585 10.4609 13.7195 9.95932 14.2073 9.95932ZM19.0854 9.33236C19.5122 9.33236 19.8171 9.58315 19.8171 9.58315L19.939 8.7054C19.939 8.7054 19.4512 8.51731 19.0244 8.51731C18.0488 8.51731 17.1341 9.33236 17.1341 10.9625C17.1341 12.0283 17.622 12.7179 18.5976 12.7179C18.9024 12.7179 19.3293 12.5926 19.3293 12.5926L19.4512 11.6521C19.4512 11.6521 19.0244 11.8402 18.7805 11.8402C18.1707 11.8402 17.9878 11.4013 17.9878 10.8998C18.0488 9.83393 18.5366 9.33236 19.0854 9.33236ZM13.1707 13.9092C13.2927 14.2226 13.4756 14.4734 13.5976 14.7869H16.3415C16.5244 14.5361 16.6463 14.2226 16.7683 13.9092H13.1707ZM17.1951 9.26966C16.8293 9.26966 16.5854 9.77123 16.5854 9.77123L16.6463 9.26966H15.8537L15.3659 12.5299H16.2195C16.4634 11.1505 16.5244 10.022 17.0732 10.2101C17.1951 9.64584 17.2561 9.45775 17.378 9.20697C17.3171 9.26967 17.2561 9.26966 17.1951 9.26966Z" fill="white"/>
</g>
<defs>
<clipPath id="clip0_2109_277">
<rect width="30" height="20" fill="white" transform="translate(0 0.554932)"/>
</clipPath>
</defs>
</svg>
