<svg width="50" height="17" viewBox="0 0 50 17" fill="none" xmlns="http://www.w3.org/2000/svg">
<g clip-path="url(#clip0_2109_279)">
<path d="M49.2 16.4548H45.7C45.5 16.4548 45.4 16.3548 45.4 16.2548C45.3 15.6548 45.1 15.0548 45 14.3548C45 14.1548 44.9 14.1548 44.7 14.1548H39.9C39.7 14.1548 39.6 14.2548 39.6 14.3548C39.4 14.9548 39.1 15.6548 38.9 16.2548C38.9 16.3548 38.8 16.4548 38.7 16.4548H34.8H34.7C34.7 16.3548 34.7 16.3548 34.8 16.2548C36.8 11.5548 38.7 6.85479 40.7 2.15479C41.1 1.25479 41.7 0.754795 42.7 0.754795H45.8C46 0.754795 46 0.854795 46 0.954795C46.5 3.15479 46.9 5.2548 47.4 7.45479C48 10.3548 48.6 13.2548 49.2 16.0548C49.1 16.2548 49.1 16.2548 49.2 16.4548ZM43.1 5.05479C43 5.05479 43.1 5.05479 43.1 5.05479C42.3 6.95479 41.6 8.95479 40.9 10.8548H44.3C43.9 8.95479 43.5 6.95479 43.1 5.05479ZM0.3 1.35479C0.9 1.55479 1.1 1.65479 1.6 1.85479C2.6 2.25479 3 2.25479 3.2 2.65479C3.2 2.65479 3.3 2.7548 3.3 2.85479C4.5 7.2548 5.6 11.6548 6.8 16.1548C6.8 16.3548 6.9 16.3548 7.1 16.3548H10.9C11.1 16.3548 11.2 16.2548 11.3 16.0548C13.3 11.2548 15.2 6.45479 17.2 1.65479C17.3 1.35479 17.4 1.05479 17.6 0.654795H13.6C13.4 0.654795 13.3 0.754795 13.2 0.954795C12 4.25479 10.8 7.5548 9.6 10.7548C9.5 10.9548 9.5 11.1548 9.4 11.2548C9.3 11.1548 9.3 11.0548 9.3 11.0548C9 10.0548 8.8 9.0548 8.6 7.95479C8.3 6.85479 8.3 7.15479 8.2 6.15479C8.2 6.15479 7.8 3.55479 7.3 1.85479C7.2 1.65479 7.2 1.45479 7 1.35479C6.9 1.25479 6.7 1.15479 6.5 1.15479H6.2C4.1 1.25479 2.1 1.25479 0 1.25479C0.1 1.25479 0.2 1.35479 0.3 1.35479ZM35.4 1.05479C35.3 1.05479 35.2 0.954795 35.1 0.954795C33.3 0.354795 31.5 0.254795 29.7 0.654795C28.5 0.954795 27.3 1.45479 26.3 2.45479C25.3 3.45479 24.8 4.75479 25 6.15479C25.1 7.15479 25.7 7.9548 26.4 8.5548C27.1 9.1548 27.8 9.5548 28.6 9.95479L30.1 10.8548C30.4 11.0548 30.6 11.2548 30.6 11.6548C30.7 12.2548 30.4 12.7548 29.8 13.0548C29.3 13.3548 28.7 13.4548 28.2 13.4548C26.8 13.4548 25.5 13.1548 24.2 12.5548C24.1 12.4548 24 12.4548 23.9 12.3548C23.7 13.4548 23.5 14.5548 23.4 15.6548C23.4 15.8548 23.4 15.8548 23.6 15.9548C24.4 16.2548 25.2 16.4548 26.1 16.5548C27.7 16.7548 29.3 16.7548 30.8 16.2548C32 15.8548 33.1 15.2548 33.9 14.2548C35.1 12.6548 35.7 9.7548 33.1 7.95479C32.5 7.55479 31.8 7.1548 31.1 6.85479L29.6 5.95479C29 5.45479 29.1 4.7548 29.7 4.35479C30.1 4.0548 30.5 3.95479 30.9 3.85479C32.3 3.65479 33.5 3.95479 34.8 4.45479C34.9 4.45479 34.9 4.45479 35 4.55479C35.1 3.35479 35.3 2.2548 35.4 1.05479C35.4 1.15479 35.4 1.05479 35.4 1.05479ZM23.3 0.754795C23.2 0.754795 23.2 0.754795 23.3 0.754795C22 0.754795 20.7 0.754795 19.4 0.654795C19.3 0.654795 19.2 0.754795 19.2 0.854795C19.1 1.4548 19 1.95479 19 2.45479C18.7 4.55479 18.3 6.6548 18 8.7548C17.7 10.7548 17.3 12.8548 17 14.8548C16.9 15.3548 16.8 15.8548 16.8 16.3548H20.8C21.6 11.1548 22.4 5.95479 23.3 0.754795Z" fill="white"/>
</g>
<defs>
<clipPath id="clip0_2109_279">
<rect width="49.2" height="16.2" fill="white" transform="translate(0 0.454834)"/>
</clipPath>
</defs>
</svg>
