<svg width="24" height="24" viewBox="0 0 24 24" fill="none" xmlns="http://www.w3.org/2000/svg">
<g id="Group 69">
<g id="Group 86">
<path id="Vector" d="M21 5.00655C20.9152 4.99782 20.8298 4.99782 20.745 5.00655H3.32965C3.21803 5.00827 3.10715 5.02499 3 5.05627L11.9876 14L21 5.00655Z" fill="black"/>
<path id="Vector_2" d="M21.925 6L12.825 14.9783C12.5908 15.209 12.274 15.3384 11.9438 15.3384C11.6135 15.3384 11.2967 15.209 11.0625 14.9783L2.04375 6.06811C2.01602 6.16907 2.00132 6.27309 2 6.37771V18.7616C2 19.0901 2.1317 19.405 2.36612 19.6373C2.60054 19.8695 2.91848 20 3.25 20H20.75C21.0815 20 21.3995 19.8695 21.6339 19.6373C21.8683 19.405 22 19.0901 22 18.7616V6.37771C21.995 6.2487 21.9697 6.12126 21.925 6ZM4.10625 18.7616H3.2375V17.8762L7.78125 13.4118L8.6625 14.2848L4.10625 18.7616ZM20.7375 18.7616H19.8625L15.3062 14.2848L16.1875 13.4118L20.7312 17.8762L20.7375 18.7616Z" fill="black"/>
</g>
</g>
</svg>
