<svg width="25" height="25" viewBox="0 0 25 25" fill="none" xmlns="http://www.w3.org/2000/svg">
<path d="M12.1978 9.55365C10.5452 9.55365 9.19655 10.9023 9.19655 12.5549C9.19655 14.2075 10.5452 15.5562 12.1978 15.5562C13.8504 15.5562 15.199 14.2075 15.199 12.5549C15.199 10.9023 13.8504 9.55365 12.1978 9.55365ZM21.1992 12.5549C21.1992 11.3121 21.2104 10.0805 21.1407 8.83992C21.0709 7.39895 20.7421 6.12008 19.6884 5.06637C18.6325 4.01041 17.3559 3.68394 15.915 3.61414C14.6722 3.54434 13.4406 3.5556 12.2 3.5556C10.9572 3.5556 9.72565 3.54434 8.48509 3.61414C7.04414 3.68394 5.7653 4.01266 4.71161 5.06637C3.65566 6.12234 3.3292 7.39895 3.2594 8.83992C3.18961 10.0828 3.20087 11.3143 3.20087 12.5549C3.20087 13.7955 3.18961 15.0294 3.2594 16.2699C3.3292 17.7109 3.65792 18.9898 4.71161 20.0435C5.76755 21.0995 7.04414 21.4259 8.48509 21.4957C9.7279 21.5655 10.9595 21.5543 12.2 21.5543C13.4428 21.5543 14.6744 21.5655 15.915 21.4957C17.3559 21.4259 18.6348 21.0972 19.6884 20.0435C20.7444 18.9875 21.0709 17.7109 21.1407 16.2699C21.2127 15.0294 21.1992 13.7978 21.1992 12.5549ZM12.1978 17.1728C9.64235 17.1728 7.57999 15.1104 7.57999 12.5549C7.57999 9.99945 9.64235 7.93706 12.1978 7.93706C14.7532 7.93706 16.8156 9.99945 16.8156 12.5549C16.8156 15.1104 14.7532 17.1728 12.1978 17.1728ZM17.0047 8.82641C16.408 8.82641 15.9262 8.34459 15.9262 7.74793C15.9262 7.15128 16.408 6.66946 17.0047 6.66946C17.6013 6.66946 18.0831 7.15128 18.0831 7.74793C18.0833 7.88961 18.0555 8.02993 18.0014 8.16086C17.9473 8.29179 17.8678 8.41075 17.7677 8.51093C17.6675 8.61111 17.5485 8.69055 17.4176 8.74468C17.2867 8.79882 17.1464 8.82659 17.0047 8.82641Z" fill="white"/>
</svg>
