<svg width="25" height="25" viewBox="0 0 25 25" fill="none" xmlns="http://www.w3.org/2000/svg">
<path fill-rule="evenodd" clip-rule="evenodd" d="M10.2577 9.17548H13.786V10.933C14.2943 9.92218 15.5977 9.01398 17.5556 9.01398C21.3091 9.01398 22.2002 11.0261 22.2002 14.7178V21.5549H18.4002V15.5585C18.4002 13.4562 17.8919 12.2706 16.598 12.2706C14.8035 12.2706 14.0577 13.5483 14.0577 15.5576V21.5549H10.2577V9.17548ZM3.7417 21.3934H7.5417V9.01398H3.7417V21.3934ZM8.08605 4.97743C8.08619 5.29594 8.02302 5.6113 7.90021 5.90519C7.77741 6.19907 7.59741 6.46562 7.3707 6.68933C6.91128 7.14592 6.28941 7.4015 5.6417 7.39993C4.99512 7.3995 4.37469 7.14457 3.9146 6.69028C3.6887 6.46581 3.50931 6.19896 3.38672 5.90504C3.26413 5.61112 3.20075 5.29589 3.2002 4.97743C3.2002 4.33428 3.4567 3.71868 3.91555 3.26458C4.37524 2.80968 4.99592 2.55465 5.64265 2.55493C6.29055 2.55493 6.91185 2.81048 7.3707 3.26458C7.8286 3.71868 8.08605 4.33428 8.08605 4.97743Z" fill="white"/>
</svg>
