<svg width="24" height="24" viewBox="0 0 24 24" fill="none" xmlns="http://www.w3.org/2000/svg">
<g id="Group 68">
<path id="Vector" fill-rule="evenodd" clip-rule="evenodd" d="M10.0575 8.62055H13.5858V10.378C14.0941 9.36725 15.3975 8.45905 17.3554 8.45905C21.1089 8.45905 22 10.4712 22 14.1629V21H18.2V15.0036C18.2 12.9012 17.6918 11.7157 16.3979 11.7157C14.6033 11.7157 13.8575 12.9934 13.8575 15.0027V21H10.0575V8.62055ZM3.5415 20.8385H7.3415V8.45905H3.5415V20.8385ZM7.88585 4.4225C7.88599 4.74101 7.82282 5.05637 7.70002 5.35026C7.57721 5.64414 7.39722 5.91069 7.1705 6.1344C6.71108 6.59099 6.08922 6.84657 5.4415 6.845C4.79492 6.84457 4.1745 6.58964 3.7144 6.13535C3.4885 5.91088 3.30912 5.64403 3.18653 5.35011C3.06394 5.05619 3.00055 4.74096 3 4.4225C3 3.77935 3.2565 3.16375 3.71535 2.70965C4.17504 2.25475 4.79573 1.99972 5.44245 2C6.09035 2 6.71165 2.25555 7.1705 2.70965C7.6284 3.16375 7.88585 3.77935 7.88585 4.4225Z" fill="black"/>
</g>
</svg>
