<svg width="25" height="25" viewBox="0 0 25 25" fill="none" xmlns="http://www.w3.org/2000/svg">
<path d="M8.4827 20.5549C16.0302 20.5549 20.1589 14.0129 20.1589 8.34958C20.1589 8.16651 20.1589 7.98083 20.1514 7.79777C20.9553 7.18905 21.649 6.43542 22.2002 5.57219C21.4493 5.91852 20.6536 6.14677 19.8389 6.24954C20.6971 5.71294 21.3398 4.86865 21.6477 3.87359C20.8414 4.37326 19.959 4.72403 19.0389 4.91053C18.4204 4.22145 17.6019 3.76495 16.7103 3.61175C15.8187 3.45855 14.9036 3.61719 14.1069 4.06311C13.3101 4.50903 12.6762 5.21734 12.3033 6.07832C11.9303 6.9393 11.8392 7.9049 12.0439 8.82556C10.4124 8.73997 8.81622 8.29658 7.359 7.52414C5.90178 6.75169 4.61605 5.66744 3.5852 4.34172C3.06187 5.28724 2.90216 6.40567 3.1385 7.4699C3.37484 8.53413 3.98951 9.46437 4.8577 10.0717C4.20712 10.0486 3.57085 9.86585 3.0002 9.53821V9.59705C3.00132 10.5876 3.32933 11.5473 3.92879 12.314C4.52825 13.0807 5.36238 13.6074 6.2902 13.805C5.93802 13.9065 5.57423 13.9571 5.20895 13.9554C4.95143 13.9562 4.69442 13.9312 4.44145 13.8808C4.70368 14.7335 5.21429 15.479 5.90175 16.0129C6.58922 16.5468 7.41911 16.8424 8.2752 16.8583C6.82089 18.0532 5.02445 18.7013 3.1752 18.6981C2.84935 18.6995 2.52372 18.6799 2.2002 18.6393C4.07709 19.891 6.25682 20.5557 8.4827 20.5549Z" fill="white"/>
</svg>
