<svg width="24" height="24" viewBox="0 0 24 24" fill="none" xmlns="http://www.w3.org/2000/svg">
<g id="Group 66">
<path id="Vector" d="M8.2825 20C15.83 20 19.9587 13.458 19.9587 7.79465C19.9587 7.61158 19.9587 7.4259 19.9513 7.24283C20.7551 6.63412 21.4488 5.88049 22 5.01726C21.2491 5.36358 20.4535 5.59184 19.6388 5.69461C20.4969 5.15801 21.1397 4.31372 21.4475 3.31866C20.6412 3.81833 19.7588 4.1691 18.8387 4.3556C18.2202 3.66652 17.4018 3.21002 16.5101 3.05682C15.6185 2.90362 14.7034 3.06226 13.9067 3.50818C13.1099 3.9541 12.476 4.66241 12.1031 5.52339C11.7301 6.38437 11.639 7.34997 11.8438 8.27063C10.2122 8.18504 8.61602 7.74165 7.1588 6.9692C5.70159 6.19676 4.41586 5.11251 3.385 3.78679C2.86168 4.73231 2.70197 5.85074 2.93831 6.91497C3.17465 7.9792 3.78932 8.90944 4.6575 9.51679C4.00692 9.49367 3.37065 9.31092 2.8 8.98328V9.04212C2.80112 10.0326 3.12913 10.9923 3.72859 11.759C4.32805 12.5258 5.16218 13.0524 6.09 13.2501C5.73783 13.3515 5.37404 13.4021 5.00875 13.4004C4.75123 13.4012 4.49423 13.3763 4.24125 13.3259C4.50348 14.1785 5.01409 14.924 5.70156 15.4579C6.38903 15.9919 7.21892 16.2875 8.075 16.3034C6.62069 17.4983 4.82425 18.1463 2.975 18.1432C2.64915 18.1446 2.32353 18.125 2 18.0843C3.87689 19.3361 6.05662 20.0007 8.2825 20Z" fill="black"/>
</g>
</svg>
