<svg width="25" height="25" viewBox="0 0 25 25" fill="none" xmlns="http://www.w3.org/2000/svg">
<path d="M22.741 7.89808C22.6158 7.44435 22.3703 7.03058 22.029 6.69817C21.6877 6.36576 21.2627 6.12638 20.7964 6.00398C19.0801 5.55493 12.2002 5.55493 12.2002 5.55493C12.2002 5.55493 5.32028 5.55493 3.60399 6.00159C3.13752 6.12359 2.71226 6.36284 2.37092 6.69531C2.02958 7.02778 1.78418 7.44177 1.65935 7.8957C1.2002 9.56767 1.2002 13.0549 1.2002 13.0549C1.2002 13.0549 1.2002 16.5422 1.65935 18.2118C1.91225 19.1338 2.65868 19.8599 3.60399 20.1059C5.32028 20.5549 12.2002 20.5549 12.2002 20.5549C12.2002 20.5549 19.0801 20.5549 20.7964 20.1059C21.7442 19.8599 22.4881 19.1338 22.741 18.2118C23.2002 16.5422 23.2002 13.0549 23.2002 13.0549C23.2002 13.0549 23.2002 9.56767 22.741 7.89808ZM10.0149 16.2556V9.85429L15.7114 13.031L10.0149 16.2556Z" fill="white"/>
</svg>
