<svg width="24" height="25" viewBox="0 0 24 25" fill="none" xmlns="http://www.w3.org/2000/svg">
<path d="M13.4119 12.2642L17.7119 7.97082C17.9002 7.78237 18.006 7.52677 18.006 7.26026C18.006 6.99374 17.9002 6.73815 17.7119 6.5497C17.5236 6.36124 17.2682 6.25537 17.0019 6.25537C16.7356 6.25537 16.4802 6.36124 16.2919 6.5497L12.0019 10.8531L7.71189 6.5497C7.52359 6.36124 7.26819 6.25537 7.00189 6.25537C6.73559 6.25537 6.4802 6.36124 6.29189 6.5497C6.10359 6.73815 5.9978 6.99374 5.9978 7.26026C5.9978 7.52677 6.10359 7.78237 6.29189 7.97082L10.5919 12.2642L6.29189 16.5576C6.19816 16.6506 6.12377 16.7613 6.073 16.8833C6.02223 17.0052 5.99609 17.1361 5.99609 17.2682C5.99609 17.4003 6.02223 17.5311 6.073 17.653C6.12377 17.775 6.19816 17.8857 6.29189 17.9787C6.38486 18.0725 6.49546 18.147 6.61732 18.1978C6.73917 18.2486 6.86988 18.2748 7.00189 18.2748C7.1339 18.2748 7.26461 18.2486 7.38647 18.1978C7.50833 18.147 7.61893 18.0725 7.71189 17.9787L12.0019 13.6753L16.2919 17.9787C16.3849 18.0725 16.4955 18.147 16.6173 18.1978C16.7392 18.2486 16.8699 18.2748 17.0019 18.2748C17.1339 18.2748 17.2646 18.2486 17.3865 18.1978C17.5083 18.147 17.6189 18.0725 17.7119 17.9787C17.8056 17.8857 17.88 17.775 17.9308 17.653C17.9816 17.5311 18.0077 17.4003 18.0077 17.2682C18.0077 17.1361 17.9816 17.0052 17.9308 16.8833C17.88 16.7613 17.8056 16.6506 17.7119 16.5576L13.4119 12.2642Z" fill="black" stroke="black" stroke-width="0.5"/>
</svg>
